HIERARCHY
ROOT Hips
{
	OFFSET 0.00000 0.00000 0.00000
	CHANNELS 6 Xposition Yposition Zposition Zrotation Yrotation Xrotation 
	JOINT LHipJoint
	{
		OFFSET 0 0 0
		CHANNELS 3 Zrotation Yrotation Xrotation
		JOINT LeftUpLeg
		{
			OFFSET 1.48831 -1.59570 0.95625
			CHANNELS 3 Zrotation Yrotation Xrotation
			JOINT LeftLeg
			{
				OFFSET 2.20856 -6.06797 0.00000
				CHANNELS 3 Zrotation Yrotation Xrotation
				JOINT LeftFoot
				{
					OFFSET 2.62924 -7.22379 0.00000
					CHANNELS 3 Zrotation Yrotation Xrotation
					JOINT LeftToeBase
					{
						OFFSET 0.16802 -0.46163 2.41673
						CHANNELS 3 Zrotation Yrotation Xrotation
						End Site
						{
							OFFSET 0.00000 -0.00000 1.23760
						}
					}
				}
			}
		}
	}
	JOINT RHipJoint
	{
		OFFSET 0 0 0
		CHANNELS 3 Zrotation Yrotation Xrotation
		JOINT RightUpLeg
		{
			OFFSET -1.56796 -1.59570 0.95625
			CHANNELS 3 Zrotation Yrotation Xrotation
			JOINT RightLeg
			{
				OFFSET -2.29239 -6.29829 0.00000
				CHANNELS 3 Zrotation Yrotation Xrotation
				JOINT RightFoot
				{
					OFFSET -2.66963 -7.33475 0.00000
					CHANNELS 3 Zrotation Yrotation Xrotation
					JOINT RightToeBase
					{
						OFFSET -0.18185 -0.49964 2.34359
						CHANNELS 3 Zrotation Yrotation Xrotation
						End Site
						{
							OFFSET -0.00000 -0.00000 1.20477
						}
					}
				}
			}
		}
	}
	JOINT LowerBack
	{
		OFFSET 0 0 0
		CHANNELS 3 Zrotation Yrotation Xrotation
		JOINT Spine
		{
			OFFSET 0.03505 2.15832 -0.34324
			CHANNELS 3 Zrotation Yrotation Xrotation
			JOINT Spine1
			{
				OFFSET -0.01089 2.17963 0.04689
				CHANNELS 3 Zrotation Yrotation Xrotation
				JOINT Neck
				{
					OFFSET 0 0 0
					CHANNELS 3 Zrotation Yrotation Xrotation
					JOINT Neck1
					{
						OFFSET 0.04686 1.69404 0.22159
						CHANNELS 3 Zrotation Yrotation Xrotation
						JOINT Head
						{
							OFFSET 0.00265 1.69305 -0.01513
							CHANNELS 3 Zrotation Yrotation Xrotation
							End Site
							{
								OFFSET -0.00415 1.80215 -0.03034
							}
						}
					}
				}
				JOINT LeftShoulder
				{
					OFFSET 0 0 0
					CHANNELS 3 Zrotation Yrotation Xrotation
					JOINT LeftArm
					{
						OFFSET 3.67184 1.11724 -0.19002
						CHANNELS 3 Zrotation Yrotation Xrotation
						JOINT LeftForeArm
						{
							OFFSET 5.17714 -0.00000 -0.00000
							CHANNELS 3 Zrotation Yrotation Xrotation
							JOINT LeftHand
							{
								OFFSET 3.43679 -0.00000 -0.00000
								CHANNELS 3 Zrotation Yrotation Xrotation
								JOINT LeftFingerBase
								{
									OFFSET 0 0 0
									CHANNELS 3 Zrotation Yrotation Xrotation
									JOINT LeftHandIndex1
									{
										OFFSET 0.57312 -0.00000 -0.00000
										CHANNELS 3 Zrotation Yrotation Xrotation
										End Site
										{
											OFFSET 0.46206 -0.00000 -0.00000
										}
									}
								}
								JOINT LThumb
								{
									OFFSET 0 0 0
									CHANNELS 3 Zrotation Yrotation Xrotation
									End Site
									{
										OFFSET 0.46912 -0.00000 0.46912
									}
								}
							}
						}
					}
				}
				JOINT RightShoulder
				{
					OFFSET 0 0 0
					CHANNELS 3 Zrotation Yrotation Xrotation
					JOINT RightArm
					{
						OFFSET -3.59596 0.95831 -0.26050
						CHANNELS 3 Zrotation Yrotation Xrotation
						JOINT RightForeArm
						{
							OFFSET -5.23908 -0.00000 -0.00000
							CHANNELS 3 Zrotation Yrotation Xrotation
							JOINT RightHand
							{
								OFFSET -3.46485 -0.00000 -0.00000
								CHANNELS 3 Zrotation Yrotation Xrotation
								JOINT RightFingerBase
								{
									OFFSET 0 0 0
									CHANNELS 3 Zrotation Yrotation Xrotation
									JOINT RightHandIndex1
									{
										OFFSET -0.60875 -0.00000 -0.00000
										CHANNELS 3 Zrotation Yrotation Xrotation
										End Site
										{
											OFFSET -0.49079 -0.00000 -0.00000
										}
									}
								}
								JOINT RThumb
								{
									OFFSET 0 0 0
									CHANNELS 3 Zrotation Yrotation Xrotation
									End Site
									{
										OFFSET -0.49829 -0.00000 0.49829
									}
								}
							}
						}
					}
				}
			}
		}
	}
}
MOTION
Frames: 6
Frame Time: .0083333
36.2024 16.3011 9.7474 0 0 0 0 0 0 -21 0 0 0 0 0 0 0 0 0 0 0 0 0 0 21 0 0 0 0 0 0 0 0 0 0 0 0 0 0 0 0 0 0 0 0 0 0 -16 0 0 21 0 0 11 0 0 0 -8 0 0 0 0 0 0 0 0 0 0 0 0 0 0 0 0 0 0 0 0 8 0 0 0 0 0 0 0 0 0 0 0 0 0 0 0 0 0
36.2024 16.3011 9.7474 -172.8010 -45.3009 170.6850 0.0000 0.0000 0.0000 -14.5168 8.1781 2.8143 0.6360 5.1024 14.2008 0.7196 6.0233 -19.3270 0.0288 -1.0954 -3.0114 0.0000 0.0000 0.0000 25.2639 4.8807 -3.3067 -2.0815 -9.0339 25.9013 -1.0878 -6.7452 -23.2288 -0.0145 -0.7784 2.1393 2.5730 -0.0982 -0.8713 1.0440 -0.3828 4.3010 -0.3854 -0.1605 4.9235 0.8271 -3.6612 -2.8090 2.1863 -5.2440 7.7467 0.3769 -2.5552 3.0009 0.0000 -0.0000 0.0000 -85.8436 -1.4352 26.1473 12.7502 -20.9201 -2.3633 -0.0000 0.0000 -16.3938 16.8611 12.4031 3.7246 -7.1250 0.0000 -0.0000 -9.3916 42.7279 0.5316 0.0000 -0.0000 0.0000 76.7612 25.2025 46.2864 -148.7377 41.9511 -107.7552 0.0000 -0.0000 -38.7272 -12.4301 1.9689 -0.4339 7.1250 -0.0000 -0.0000 10.8840 -27.9046 4.6016
36.2031 16.3019 9.7520 -172.7810 -45.2863 170.7020 0.0000 0.0000 0.0000 -14.5099 8.2117 2.7590 0.6355 5.1005 14.1953 0.7204 5.9924 -19.3126 0.0286 -1.0922 -3.0026 0.0000 0.0000 0.0000 25.2663 4.9105 -3.3364 -2.0795 -9.0298 25.8885 -1.0901 -6.7135 -23.2259 -0.0167 -0.8343 2.2930 2.5729 -0.0796 -0.8194 1.0263 -0.3552 4.2973 -0.4021 -0.1467 4.8905 0.7953 -3.6721 -2.8409 2.2254 -5.2495 7.5764 0.3958 -2.5571 2.9512 -0.0000 0.0000 0.0000 -85.8097 -1.4389 25.9567 12.7757 -20.9577 -2.3725 -0.0000 0.0000 -16.5418 16.4208 12.6369 3.6890 -7.1250 0.0000 -0.0000 -9.8344 42.9213 0.5098 -0.0000 0.0000 0.0000 76.3970 24.0633 46.2333 -148.1915 42.3940 -107.3885 0.0000 -0.0000 -37.7452 -12.4019 2.0094 -0.4418 7.1250 -0.0000 -0.0000 10.9015 -27.8638 4.6199
36.2028 16.3033 9.7569 -172.7990 -45.2728 170.7460 0.0000 0.0000 0.0000 -14.5413 8.2085 2.7124 0.6355 5.1006 14.1958 0.7200 5.9881 -19.3056 0.0258 -1.0377 -2.8525 0.0000 0.0000 0.0000 25.2315 4.9163 -3.3807 -2.0771 -9.0249 25.8732 -1.0775 -6.7652 -23.1559 -0.0134 -0.7471 2.0531 2.5758 -0.0649 -0.8517 0.9959 -0.3388 4.3535 -0.4345 -0.1374 4.9682 0.6904 -3.6844 -2.7979 2.3217 -5.2501 7.2844 0.4484 -2.5581 2.8504 0.0000 -0.0000 0.0000 -85.7629 -1.5432 25.9428 12.7472 -20.9158 -2.3623 -0.0000 0.0000 -16.5757 16.3753 12.6452 3.6806 -7.1250 0.0000 -0.0000 -9.8769 42.9251 0.5111 0.0000 -0.0000 0.0000 76.0395 22.9905 46.2029 -147.5929 42.8694 -106.9830 0.0000 -0.0000 -36.8243 -12.2640 1.8811 -0.4088 7.1250 -0.0000 -0.0000 11.0193 -27.9926 4.6374
36.2029 16.3042 9.7626 -172.7800 -45.2704 170.7750 0.0000 0.0000 0.0000 -14.5498 8.1918 2.6505 0.6357 5.1014 14.1981 0.7189 5.9933 -19.2988 0.0265 -1.0516 -2.8907 0.0000 0.0000 0.0000 25.2236 4.9302 -3.4342 -2.0746 -9.0197 25.8569 -1.0782 -6.7494 -23.1504 -0.0144 -0.7761 2.1331 2.5856 -0.0536 -0.8078 0.9745 -0.3211 4.3471 -0.4610 -0.1280 4.9367 0.7437 -3.7024 -2.8041 2.2536 -5.2592 7.0797 0.4193 -2.5634 2.7784 -0.0000 0.0000 0.0000 -85.7152 -1.4863 26.1187 12.7588 -20.9328 -2.3664 -0.0000 0.0000 -16.4171 16.7499 12.5380 3.7381 -7.1250 0.0000 -0.0000 -9.5198 42.8544 0.5090 -0.0000 0.0000 0.0000 75.7154 21.8079 46.2134 -146.8582 43.4388 -106.4805 0.0000 -0.0000 -36.0336 -12.0198 1.7561 -0.3739 7.1250 -0.0000 -0.0000 11.2181 -28.1174 4.6903
36.2029 16.3054 9.7680 -172.7660 -45.2614 170.8060 0.0000 0.0000 0.0000 -14.5580 8.1856 2.5889 0.6359 5.1021 14.2001 0.7183 5.9907 -19.2900 0.0263 -1.0461 -2.8758 0.0000 0.0000 0.0000 25.2129 4.9428 -3.4867 -2.0720 -9.0145 25.8408 -1.0750 -6.7462 -23.1220 -0.0146 -0.7795 2.1423 2.5937 -0.0403 -0.7773 0.9543 -0.3018 4.3516 -0.4853 -0.1178 4.9244 0.7226 -3.7168 -2.8069 2.2667 -5.2655 6.8604 0.4291 -2.5669 2.7061 -0.0000 0.0000 0.0000 -85.6705 -1.4728 26.1845 12.7661 -20.9435 -2.3690 -0.0000 0.0000 -16.3950 16.8523 12.4985 3.7507 -7.1250 0.0000 -0.0000 -9.4201 42.8247 0.5105 -0.0000 0.0000 0.0000 75.3943 20.6539 46.2150 -146.1279 43.9898 -105.9758 0.0000 -0.0000 -35.2276 -11.7624 1.6323 -0.3398 7.1250 -0.0000 -0.0000 11.4273 -28.2404 4.7471
